Coordinates
version=1
nRows=4
nColumns=107
inDegrees=yes

Units are S.I. units (second, meters, Newtons, ...)
If the header above contains a line with 'inDegrees', this indicates whether rotational values are in degrees (yes) or radians (no).

endheader
time	sternoclavicular_r2	sternoclavicular_r3	unrotscap_r3	unrotscap_r2	acromioclavicular_r2	acromioclavicular_r3	acromioclavicular_r1	unrothum_r1	unrothum_r3	unrothum_r2	elv_angle	shoulder_elv	shoulder1_r2	shoulder_rot	elbow_flexion	pro_sup	deviation	flexion	proximal_distal_r1	proximal_distal_r3	cmc_flexion	cmc_abduction	mp_flexion	ip_flexion	mcp2_flexion	mcp2_abduction	pm2_flexion	md2_flexion	mcp3_flexion	mcp3_abduction	pm3_flexion	md3_flexion	mcp4_flexion	mcp4_abduction	pm4_flexion	md4_flexion	mcp5_flexion	mcp5_abduction	pm5_flexion	md5_flexion	bicpt_tx	bicpt_ty	bicpt_tz	bicpt2_tx	bicpt2_ty	bicpt2_tz	ptpt_tx	ptpt_ty	ptpt_tz	FCUpt_tx	FCUpt_ty	FCUpt_tz	EDCpt_tx	EDCpt_ty	EDCpt_tz	APLpt_tx	APLpt_ty	APLpt_tz	FPLpt_tx	FPLpt_ty	FPLpt_tz	FPLpt2_tx	FPLpt2_ty	FPLpt2_tz	PEC1pt2_tx	PEC1pt2_ty	PEC1pt2_tz	PEC1pt3_tx	PEC1pt3_ty	PEC1pt3_tz	PEC2pt2_tx	PEC2pt2_ty	PEC2pt2_tz	PEC2pt3_tx	PEC2pt3_ty	PEC2pt3_tz	PEC3pt2_tx	PEC3pt2_ty	PEC3pt2_tz	PEC3pt3_tx	PEC3pt3_ty	PEC3pt3_tz	DELT2pt2a_tx	DELT2pt2a_ty	DELT2pt2a_tz	DELT2pt2_tx	DELT2pt2_ty	DELT2pt2_tz	LAT1pt2_tx	LAT1pt2_ty	LAT1pt2_tz	LAT1pt3_tx	LAT1pt3_ty	LAT1pt3_tz	LAT2pt2_tx	LAT2pt2_ty	LAT2pt2_tz	LAT2pt3_tx	LAT2pt3_ty	LAT2pt3_tz	LAT3pt2_tx	LAT3pt2_ty	LAT3pt2_tz	LAT3pt3_tx	LAT3pt3_ty	LAT3pt3_tz
      1.03333333	     -0.31893182	      0.13508447	     -0.13508447	      0.31893182	     -0.06457721	      0.52189026	      0.23458608	     -0.23458608	     -0.52189026	      0.06457721	    100.01100922	     75.50994334	     -1.74552140	    -24.89823338	     27.43590389	     12.34767827	     -0.07812262	     -0.80483076	     -0.11101884	     -0.40241538	     -5.66931916	     -8.29328949	    -30.17856250	    -39.02346943	     16.65740369	     10.97598845	     16.02619242	    -20.78504874	     38.45629848	      9.47606828	     85.80278549	     69.87295387	     23.34963288	     -2.34524893	     87.81410721	     46.64100735	     -3.28653145	    -11.80665115	     -2.88893713	      5.16310798	      0.00080749	     -0.03074457	     -0.00480651	      0.01564808	     -0.01765310	     -0.00988590	      0.00663765	     -0.06548994	     -0.00104467	      0.00511424	     -0.18396174	      0.00009780	     -0.00148172	      0.00037338	      0.00013772	      0.00028100	      0.00011240	      0.00056199	      0.00035968	      0.00107903	      0.00060695	     -0.00045260	      0.00015959	      0.00019151	      0.00247505	      0.00868365	      0.00604080	     -0.00809635	      0.01954870	     -0.01854190	      0.00247505	      0.00868365	      0.00604080	      0.00054535	      0.01812240	     -0.00952265	      0.00392299	      0.00482887	      0.01590634	      0.00000000	      0.00762438	      0.00000000	     -0.00708955	     -0.03276295	     -0.00628577	      0.01644239	     -0.00058693	     -0.00518090	     -0.00088095	      0.01476640	     -0.00604080	      0.00243310	      0.02131060	     -0.01761900	     -0.00591495	      0.01279475	     -0.00541155	     -0.01233330	      0.02701580	     -0.03024595	     -0.02315640	      0.01430495	     -0.00725735	     -0.01535370	      0.03121080	     -0.03779695
      1.06666667	     -0.31777387	      0.13459401	     -0.13459401	      0.31777387	     -0.06434274	      0.51999542	      0.23373436	     -0.23373436	     -0.51999542	      0.06434274	    100.43846175	     75.23578725	     -1.75298185	    -26.09401747	     26.93987488	     10.14754114	     -0.08131743	     -0.77583407	     -0.11577089	     -0.38791703	     -4.49122157	     -9.32318201	    -29.75095846	    -39.00838258	     18.76359517	     10.70555188	     17.07231683	    -20.22950705	     37.52514486	      8.81961457	     85.02896862	     69.67200981	     22.90514889	     -2.70277059	     87.01228250	     46.32431883	     -1.88658221	    -11.78010623	     -2.07299956	      5.24111904	      0.00079109	     -0.03068772	     -0.00479735	      0.01549925	     -0.01751835	     -0.01003208	      0.00680021	     -0.06538483	     -0.00086744	      0.00491225	     -0.18398954	      0.00016106	     -0.00121770	      0.00030340	      0.00011924	      0.00028971	      0.00011589	      0.00057943	      0.00037083	      0.00111250	      0.00062578	     -0.00030311	      0.00012348	      0.00014818	      0.00246606	      0.00865212	      0.00601887	     -0.00806696	      0.01947773	     -0.01847458	      0.00246606	      0.00865212	      0.00601887	      0.00054337	      0.01805660	     -0.00948808	      0.00391253	      0.00481134	      0.01588043	      0.00000000	      0.00756876	      0.00000000	     -0.00706381	     -0.03264400	     -0.00623958	      0.01704447	     -0.00062607	     -0.00569328	     -0.00087775	      0.01471279	     -0.00601887	      0.00242427	      0.02123323	     -0.01755503	     -0.00589347	      0.01274830	     -0.00539190	     -0.01228852	      0.02691772	     -0.03013614	     -0.02307233	      0.01425301	     -0.00723100	     -0.01529796	      0.03109748	     -0.03765972
      1.10000000	     -0.31771299	      0.13456823	     -0.13456823	      0.31771299	     -0.06433042	      0.51989581	      0.23368959	     -0.23368959	     -0.51989581	      0.06433042	    100.39319643	     75.22137437	     -1.75219182	    -25.91323582	     27.06058471	      6.96860193	     -0.02098497	     -0.59687250	     -0.02883962	     -0.29843625	     -3.84722615	    -11.00533514	    -27.85243055	    -36.83123233	     20.08368819	     10.97368669	     17.41928162	    -14.51037485	     35.17694712	      8.04119632	     83.39207242	     64.64779505	     21.55142420	     -2.78546518	     83.70415681	     44.27642653	     -3.00394305	    -11.22682859	      4.94686863	      5.11353574	      0.00079508	     -0.03070156	     -0.00479958	      0.01526465	     -0.01755114	     -0.01023129	      0.00703510	     -0.06523294	     -0.00061136	      0.00462305	     -0.18402729	      0.00025890	     -0.00083623	      0.00020494	      0.00008789	      0.00031234	      0.00012494	      0.00062468	      0.00039980	      0.00119939	      0.00067465	     -0.00023551	      0.00010440	      0.00012528	      0.00246559	      0.00865047	      0.00601772	     -0.00806541	      0.01947399	     -0.01847104	      0.00246559	      0.00865047	      0.00601772	      0.00054327	      0.01805315	     -0.00948626	      0.00391198	      0.00481041	      0.01587906	      0.00000000	      0.00756584	      0.00000000	     -0.00706246	     -0.03263775	     -0.00623716	      0.01695468	     -0.00062012	     -0.00561454	     -0.00087758	      0.01470997	     -0.00601772	      0.00242380	      0.02122916	     -0.01755167	     -0.00589235	      0.01274585	     -0.00539087	     -0.01228617	      0.02691256	     -0.03013036	     -0.02306791	      0.01425028	     -0.00722962	     -0.01529503	      0.03109153	     -0.03765251
      1.13333333	     -0.31611325	      0.13389065	     -0.13389065	      0.31611325	     -0.06400650	      0.51727804	      0.23251292	     -0.23251292	     -0.51727804	      0.06400650	    101.04924898	     74.84262086	     -1.76364210	    -27.53570905	     26.19876888	      4.02119024	     -0.02476220	     -0.55989363	     -0.03410767	     -0.27994681	     -1.84840242	    -12.73026298	    -26.66427334	    -36.40517472	     23.03192647	     10.25249944	     19.05599222	    -13.83456601	     33.08189102	      6.58025788	     81.40886513	     64.05795673	     20.42804786	     -3.83818512	     82.30845992	     43.77627996	     -0.59675420	    -11.54481286	      6.08863133	      5.26064501	      0.00076657	     -0.03060278	     -0.00478367	      0.01502648	     -0.01731702	     -0.01040334	      0.00725288	     -0.06509212	     -0.00037393	      0.00435770	     -0.18405973	      0.00035641	     -0.00048254	      0.00011643	      0.00005393	      0.00031033	      0.00012413	      0.00062066	      0.00039722	      0.00119167	      0.00067031	     -0.00008020	      0.00004808	      0.00005770	      0.00245318	      0.00860691	      0.00598741	     -0.00802480	      0.01937594	     -0.01837804	      0.00245318	      0.00860691	      0.00598741	      0.00054053	      0.01796224	     -0.00943849	      0.00389749	      0.00478619	      0.01584298	      0.00000000	      0.00748933	      0.00000000	     -0.00702690	     -0.03247341	     -0.00617362	      0.01774503	     -0.00067388	     -0.00633669	     -0.00087316	      0.01463590	     -0.00598741	      0.00241160	      0.02112227	     -0.01746329	     -0.00586268	      0.01268168	     -0.00536373	     -0.01222431	      0.02677705	     -0.02997865	     -0.02295176	      0.01417853	     -0.00719321	     -0.01521801	      0.03093498	     -0.03746292
